<?xml version="1.0" standalone="no"?>
<!DOCTYPE svg PUBLIC "-//W3C//DTD SVG 20010904//EN"
 "http://www.w3.org/TR/2001/REC-SVG-20010904/DTD/svg10.dtd">
<svg version="1.0" xmlns="http://www.w3.org/2000/svg"
 width="512.000000pt" height="512.000000pt" viewBox="0 0 512.000000 512.000000"
 preserveAspectRatio="xMidYMid meet">

<g transform="translate(0.000000,512.000000) scale(0.100000,-0.100000)"
fill="#000000" stroke="none">
<path d="M2495 4624 c-37 -18 -911 -888 -931 -926 -19 -37 -18 -106 4 -148 32
-64 126 -97 199 -69 15 5 164 146 331 312 l302 302 0 -1104 c0 -1228 -5 -1143
68 -1199 51 -39 133 -39 184 0 73 56 68 -29 68 1199 l0 1104 303 -302 c166
-166 315 -307 330 -312 73 -28 167 5 199 69 22 42 23 111 4 148 -22 42 -907
920 -939 931 -40 15 -87 13 -122 -5z"/>
<path d="M785 2274 c-51 -26 -74 -55 -86 -108 -7 -35 -10 -180 -6 -476 5 -472
7 -492 73 -626 101 -204 321 -344 647 -409 276 -54 382 -60 1147 -60 765 0
871 6 1147 60 326 65 546 205 647 409 66 134 69 153 73 636 4 491 3 502 -60
553 -75 61 -198 39 -239 -43 -16 -32 -18 -74 -18 -425 0 -214 -5 -421 -10
-458 -15 -100 -58 -177 -130 -230 -118 -87 -289 -135 -605 -169 -169 -18
-1441 -18 -1610 0 -509 55 -700 159 -735 399 -5 37 -10 244 -10 458 0 351 -2
393 -18 425 -34 68 -138 100 -207 64z"/>
</g>
</svg>
